<?xml version="1.0" standalone="no"?>
<!DOCTYPE svg PUBLIC "-//W3C//DTD SVG 20010904//EN"
 "http://www.w3.org/TR/2001/REC-SVG-20010904/DTD/svg10.dtd">
<svg version="1.0" xmlns="http://www.w3.org/2000/svg"
 width="500.000000pt" height="500.000000pt" viewBox="0 0 500.000000 500.000000"
 preserveAspectRatio="xMidYMid meet">

<g transform="translate(0.000000,500.000000) scale(0.100000,-0.100000)"
fill="#000000" stroke="none">
<path d="M0 2500 l0 -2500 2500 0 2500 0 0 2500 0 2500 -2500 0 -2500 0 0
-2500z m2805 1349 c200 -20 347 -74 475 -175 222 -174 339 -512 301 -867 -37
-336 -200 -587 -442 -677 -33 -13 -59 -26 -59 -30 0 -5 126 -266 280 -580 154
-314 280 -574 280 -576 0 -2 -154 -3 -342 -2 l-342 3 -241 535 -241 535 -147
3 -147 3 0 -208 0 -207 -117 116 c-168 166 -199 168 -343 22 -47 -47 -102 -99
-122 -116 l-38 -30 0 1131 0 1131 568 0 c339 0 612 -4 677 -11z m-864 -2326
c19 -15 51 -47 73 -70 32 -36 36 -45 26 -58 -7 -8 -16 -15 -21 -15 -4 0 -37
27 -72 60 -36 33 -68 60 -72 60 -4 0 -36 -28 -71 -62 -59 -57 -66 -60 -81 -46
-15 15 -13 20 16 57 81 102 140 123 202 74z m-58 -224 c170 -42 203 -58 177
-83 -13 -13 -37 -9 -180 25 -173 42 -203 56 -180 83 7 9 14 16 17 16 2 0 77
-18 166 -41z m-68 -200 l65 -62 64 62 c36 33 69 61 74 61 5 0 16 -7 23 -16 11
-14 4 -25 -58 -85 -96 -94 -114 -94 -206 -1 -49 49 -66 73 -61 85 11 29 31 20
99 -44z"/>
<path d="M2180 2929 l0 -420 263 3 c242 3 266 5 318 26 108 43 153 118 170
286 13 120 0 290 -26 353 -59 141 -150 173 -502 173 l-223 0 0 -421z"/>
</g>
</svg>
